# xmcd CD database file
#
# Track frame offsets:
#	150
#	54532
#	103946
#	127718
#	142247
#	171690
#	197349
#	236750
#	276515
#	333229
#
# Disc length: 4773 seconds
#
# Revision: 2
# Processed by: cddbd v1.5.1PL0 Copyright (c) Steve Scherf et al.
# Submitted via: CDex 1.51
#
DISCID=9b12a30a
DTITLE=John Abercrombie - Rarum XIV Selected Recordings
DYEAR=2004
DGENRE=Jazz
TTITLE0=Timeless
TTITLE1=Sorcery I
TTITLE2=Avenue
TTITLE3=Memoir
TTITLE4=Stray
TTITLE5=Big Music
TTITLE6=Me Belle Hélène
TTITLE7=Carol's Carol
TTITLE8=Homecoming
TTITLE9=Convolution
EXTD=YEAR: 2004
EXTT0=
EXTT1=
EXTT2=
EXTT3=
EXTT4=
EXTT5=
EXTT6=
EXTT7=
EXTT8=
EXTT9=
PLAYORDER=
